<svg xmlns="http://www.w3.org/2000/svg" version="1.1" xmlns:xlink="http://www.w3.org/1999/xlink" xmlns:svgjs="http://svgjs.dev/svgjs" width="2000" height="1500" viewBox="0 0 2000 1500"><rect width="2000" height="1500" fill="#000000"></rect><g transform="matrix(0.75,0,0,0.75,249.090909090909,497.406228197156)"><svg viewBox="0 0 396 134" data-background-color="#ffffff" preserveAspectRatio="xMidYMid meet" height="676" width="2000" xmlns="http://www.w3.org/2000/svg" xmlns:xlink="http://www.w3.org/1999/xlink"><g id="tight-bounds" transform="matrix(1,0,0,1,0.2400000000000091,-0.23951593376509095)"><svg viewBox="0 0 395.52 134.47903186753018" height="134.47903186753018" width="395.52"><g><svg viewBox="0 0 656.4461655365844 223.1954005221287" height="134.47903186753018" width="395.52"><g transform="matrix(1,0,0,1,260.9261655365844,41.21002045594528)"><svg viewBox="0 0 395.52 140.77535961023813" height="140.77535961023813" width="395.52"><g id="textblocktransform"><svg viewBox="0 0 395.52 140.77535961023813" height="140.77535961023813" width="395.52" id="textblock"><g><svg viewBox="0 0 395.52 79.91232699312019" height="79.91232699312019" width="395.52"><g transform="matrix(1,0,0,1,0,0)"><svg width="395.52" viewBox="1.9 -38.09 241.29 48.760000000000005" height="79.91232699312019" data-palette-color="#a437db"><path d="M12.18 0.51L12.18 0.51Q8.96 0.51 6.65-1.09 4.35-2.69 3.13-5.54 1.9-8.4 1.9-12.21L1.9-12.21 1.9-12.72Q1.9-16.97 3.13-20.17 4.35-23.36 6.67-25.13 8.98-26.9 12.23-26.9L12.23-26.9Q14.58-26.9 16.37-26.04 18.16-25.17 19.43-23.54L19.43-23.54 19.43-34.3 15.45-34.99 15.45-38.09 19.43-38.09 24.24-38.09 24.24-3.76 28.22-3.08 28.22 0 20.07 0 19.68-3.15Q18.38-1.34 16.52-0.42 14.65 0.51 12.18 0.51ZM13.4-3.39L13.4-3.39Q15.55-3.39 17.02-4.37 18.48-5.35 19.43-7.13L19.43-7.13 19.43-19.38Q18.51-21.04 17.02-22.02 15.53-23 13.45-23L13.45-23Q11.16-23 9.67-21.69 8.18-20.39 7.45-18.08 6.71-15.77 6.71-12.72L6.71-12.72 6.71-12.21Q6.71-8.23 8.35-5.81 9.99-3.39 13.4-3.39ZM44.14 0L31.37 0 31.37-3.08 35.35-3.76 35.35-22.63 31.37-23.32 31.37-26.42 40.16-26.42 40.16-3.76 44.14-3.08 44.14 0ZM40.16-32.93L35.1-32.93 35.1-38.09 40.16-38.09 40.16-32.93ZM59.39 0.51L59.39 0.51Q55.81 0.51 53.14-1.16 50.48-2.83 49.02-5.81 47.55-8.79 47.55-12.7L47.55-12.7 47.55-13.72Q47.55-17.48 48.97-20.46 50.39-23.44 53.05-25.17 55.71-26.9 59.39-26.9L59.39-26.9Q62.59-26.9 65-25.85 67.4-24.8 69.04-22.97L69.04-22.97 69.16-16.63 65.4-16.63 64.57-21.24Q63.74-22.09 62.5-22.61 61.25-23.12 59.57-23.12L59.57-23.12Q57.42-23.12 55.79-21.85 54.17-20.58 53.27-18.46 52.36-16.33 52.36-13.72L52.36-13.72 52.36-12.7Q52.36-9.81 53.21-7.69 54.05-5.57 55.62-4.41 57.2-3.25 59.37-3.25L59.37-3.25Q61.81-3.25 63.42-4.59 65.03-5.93 65.4-8.28L65.4-8.28 69.72-8.28 69.77-8.13Q69.65-5.86 68.43-3.88 67.21-1.9 64.95-0.7 62.69 0.51 59.39 0.51ZM82.83 0.42L82.83 0.42Q79.9 0.42 78.18-1.31 76.46-3.03 76.46-6.81L76.46-6.81 76.46-22.85 72.28-22.85 72.28-26.42 76.46-26.42 76.46-32.79 81.27-32.79 81.27-26.42 87-26.42 87-22.85 81.27-22.85 81.27-6.81Q81.27-4.91 82.02-4 82.78-3.1 84.05-3.1L84.05-3.1Q84.9-3.1 85.95-3.26 87-3.42 87.59-3.54L87.59-3.54 88.25-0.39Q87.2-0.07 85.67 0.17 84.15 0.42 82.83 0.42ZM103.92 0L91.15 0 91.15-3.08 95.13-3.76 95.13-22.63 91.15-23.32 91.15-26.42 99.94-26.42 99.94-3.76 103.92-3.08 103.92 0ZM99.94-32.93L94.89-32.93 94.89-38.09 99.94-38.09 99.94-32.93ZM119.18 0.51L119.18 0.51Q115.51 0.51 112.87-1.21 110.22-2.93 108.78-5.97 107.34-9.01 107.34-12.92L107.34-12.92 107.34-13.45Q107.34-17.36 108.78-20.4 110.22-23.44 112.87-25.17 115.51-26.9 119.13-26.9L119.13-26.9Q122.79-26.9 125.44-25.17 128.09-23.44 129.53-20.41 130.97-17.38 130.97-13.45L130.97-13.45 130.97-12.92Q130.97-8.98 129.53-5.94 128.09-2.91 125.45-1.2 122.81 0.51 119.18 0.51ZM119.18-3.25L119.18-3.25Q121.47-3.25 123.02-4.5 124.57-5.76 125.37-7.95 126.16-10.13 126.16-12.92L126.16-12.92 126.16-13.45Q126.16-16.24 125.37-18.42 124.57-20.61 123.01-21.86 121.45-23.12 119.13-23.12L119.13-23.12Q116.83-23.12 115.27-21.86 113.71-20.61 112.93-18.42 112.15-16.24 112.15-13.45L112.15-13.45 112.15-12.92Q112.15-10.13 112.93-7.95 113.71-5.76 115.28-4.5 116.86-3.25 119.18-3.25ZM147.45 0L134.68 0 134.68-3.08 138.66-3.76 138.66-22.63 134.68-23.32 134.68-26.42 142.95-26.42 143.3-22.49Q144.61-24.58 146.6-25.74 148.59-26.9 151.13-26.9L151.13-26.9Q155.4-26.9 157.75-24.4 160.09-21.9 160.09-16.67L160.09-16.67 160.09-3.76 164.07-3.08 164.07 0 151.3 0 151.3-3.08 155.28-3.76 155.28-16.58Q155.28-20.07 153.9-21.53 152.52-23 149.69-23L149.69-23Q147.62-23 146.02-22 144.42-21 143.47-19.26L143.47-19.26 143.47-3.76 147.45-3.08 147.45 0ZM176.01 0.51L176.01 0.51Q171.88 0.51 169.73-1.5 167.59-3.52 167.59-7.18L167.59-7.18Q167.59-9.69 168.96-11.56 170.34-13.43 172.96-14.47 175.57-15.5 179.21-15.5L179.21-15.5 183.92-15.5 183.92-18.09Q183.92-20.48 182.47-21.8 181.01-23.12 178.38-23.12L178.38-23.12Q176.72-23.12 175.5-22.72 174.27-22.31 173.27-21.61L173.27-21.61 172.76-17.92 169.05-17.92 169.05-23.97Q170.83-25.42 173.2-26.16 175.57-26.9 178.45-26.9L178.45-26.9Q183.26-26.9 185.99-24.61 188.73-22.31 188.73-18.04L188.73-18.04 188.73-5.32Q188.73-4.81 188.74-4.32 188.75-3.83 188.8-3.34L188.8-3.34 191.36-3.08 191.36 0 184.46 0Q184.24-1.07 184.11-1.93 183.99-2.78 183.94-3.64L183.94-3.64Q182.55-1.86 180.46-0.67 178.38 0.51 176.01 0.51ZM176.72-3.52L176.72-3.52Q179.11-3.52 181.09-4.66 183.06-5.81 183.92-7.42L183.92-7.42 183.92-12.21 179.04-12.21Q175.71-12.21 174.05-10.62 172.39-9.03 172.39-7.08L172.39-7.08Q172.39-5.35 173.47-4.43 174.54-3.52 176.72-3.52ZM207.82 0L195.05 0 195.05-3.08 199.03-3.76 199.03-22.63 195.05-23.32 195.05-26.42 203.32-26.42 203.74-23.05 203.79-22.58Q204.91-24.61 206.56-25.76 208.21-26.9 210.33-26.9L210.33-26.9Q211.09-26.9 211.88-26.77 212.68-26.64 213.02-26.51L213.02-26.51 212.38-22.05 209.04-22.24Q207.13-22.36 205.84-21.37 204.55-20.39 203.84-18.73L203.84-18.73 203.84-3.76 207.82-3.08 207.82 0ZM222.12 10.67L222.12 10.67Q221.56 10.67 220.66 10.53 219.75 10.4 219.26 10.28L219.26 10.28 219.75 6.49Q220.17 6.54 220.9 6.58 221.63 6.62 221.9 6.62L221.9 6.62Q223.44 6.62 224.4 5.44 225.37 4.27 226.2 2.25L226.2 2.25 227.35-0.54 218-22.92 215.16-23.32 215.16-26.42 226.25-26.42 226.25-23.32 223.05-22.83 228.2-9.62 229.45-6.18 229.59-6.18 235.7-22.83 232.33-23.32 232.33-26.42 243.19-26.42 243.19-23.32 240.46-22.92 230.06 4.05Q229.32 5.96 228.29 7.46 227.25 8.96 225.75 9.81 224.25 10.67 222.12 10.67Z" opacity="1" transform="matrix(1,0,0,1,0,0)" fill="#ffffff" class="wordmark-text-0" data-fill-palette-color="primary" id="text-0"></path></svg></g></svg></g><g transform="matrix(1,0,0,1,0,98.77770950034804)"><svg viewBox="0 0 232.209792 41.9976501098901" height="41.9976501098901" width="232.209792"><g transform="matrix(1,0,0,1,0,0)"><svg width="232.209792" viewBox="2.15 -39 218.38 39.5" height="41.9976501098901" data-palette-color="#bb84e8"><path d="M16.05-33.85L11.85-32.8 11.85-18.3 25.85-32.8 21.3-33.85 21.3-36 34.45-36 34.45-33.85 30.05-32.8 18.35-21.2 33.3-3.1 37.5-2.15 37.5 0 23.55 0 23.55-2.15 26.85-3.15 15-17.8 11.85-14.8 11.85-3.2 16.05-2.15 16.05 0 2.15 0 2.15-2.15 6.85-3.2 6.85-32.8 2.15-33.85 2.15-36 16.05-36 16.05-33.85ZM38.15-27L46.35-27 46.35-12.85Q46.35-9.65 46.52-8.03 46.7-6.4 47.15-5.5L47.15-5.5Q47.7-4.3 48.8-3.68 49.9-3.05 51.35-3.05L51.35-3.05Q52.7-3.05 53.95-3.55 55.2-4.05 56.15-4.9L56.15-4.9Q58.2-6.75 58.4-10.65L58.4-10.65 58.4-24 54.05-24.95 54.05-27 63.25-27 63.25-3 67.1-2.05 67.1 0 59.35 0.5 58.8-5 58.6-5Q57.15-2.45 54.65-0.98 52.15 0.5 49.3 0.5L49.3 0.5Q47.4 0.5 45.82-0.23 44.25-0.95 43.35-2.2L43.35-2.2Q42.4-3.6 41.95-6.15 41.5-8.7 41.5-12.95L41.5-12.95 41.5-24 38.15-24.95 38.15-27ZM85.2-24.1L85.2-24.1Q85-24.25 84.72-24.33 84.45-24.4 84.2-24.4L84.2-24.4Q83.6-24.4 82.9-23.85 82.2-23.3 81.55-22.38 80.9-21.45 80.35-20.25L80.35-20.25Q79.65-18.55 79.25-16.53 78.85-14.5 78.85-12.35L78.85-12.35 78.85-3 84.25-2.05 84.25 0 70.15 0 70.15-2.05 74-3 74-24 70.15-24.95 70.15-27 77.35-27 78.45-20.4 78.65-20.4Q79.8-23.8 81.75-25.65 83.7-27.5 86.05-27.5L86.05-27.5Q88-27.5 89.3-26.28 90.6-25.05 90.6-23L90.6-23Q90.6-21.5 89.82-20.63 89.05-19.75 87.75-19.75L87.75-19.75Q86.45-19.75 85.7-20.58 84.95-21.4 84.95-22.75L84.95-22.75Q84.95-23.05 85-23.33 85.05-23.6 85.2-24.1ZM93.34-13.25L93.34-13.25Q93.34-16.5 94.19-19.45 95.04-22.4 96.74-24.25L96.74-24.25Q98.19-25.85 100.19-26.68 102.19-27.5 104.79-27.5L104.79-27.5Q106.99-27.5 108.82-26.65 110.64-25.8 112.09-23.6L112.09-23.6 112.09-36 108.24-36.95 108.24-39 116.94-39 116.94-3 120.79-2.05 120.79 0 113.04 0.5 112.64-3.6Q111.09-1.3 109.14-0.4 107.19 0.5 104.79 0.5L104.79 0.5Q102.24 0.5 100.19-0.25 98.14-1 96.79-2.65L96.79-2.65Q95.19-4.6 94.27-7.33 93.34-10.05 93.34-13.25ZM112.09-13.3L112.09-13.3Q112.09-16.35 111.64-18.6 111.19-20.85 110.34-22.25L110.34-22.25Q109.54-23.55 108.39-24.23 107.24-24.9 105.34-24.9L105.34-24.9Q103.64-24.9 102.37-24.3 101.09-23.7 100.29-22.55L100.29-22.55Q99.39-21.3 98.99-18.98 98.59-16.65 98.59-13.65L98.59-13.65Q98.59-10.65 99.04-8.43 99.49-6.2 100.34-4.75L100.34-4.75Q101.19-3.5 102.37-2.8 103.54-2.1 105.39-2.1L105.39-2.1Q107.14-2.1 108.42-2.68 109.69-3.25 110.34-4.4L110.34-4.4Q111.19-5.8 111.64-8.03 112.09-10.25 112.09-13.3ZM151.79-33.85L146.59-32.8 146.59-3 160.19-3 161.89-11.65 164.64-11.65 164.64 0 136.89 0 136.89-2.15 141.59-3.2 141.59-32.8 136.89-33.85 136.89-36 151.79-36 151.79-33.85ZM191.03-13.2L191.03-13.2 173.59-13.2Q173.59-9.55 174.59-7.15L174.59-7.15Q175.59-4.85 177.44-3.85 179.28-2.85 181.44-2.85L181.44-2.85Q183.78-2.85 185.74-3.83 187.69-4.8 189.24-6.5L189.24-6.5 190.84-5.3Q189.09-2.9 186.59-1.2 184.09 0.5 180.13 0.5L180.13 0.5Q176.69 0.5 174.03-0.98 171.38-2.45 169.99-5.3L169.99-5.3Q169.24-6.85 168.88-8.75 168.53-10.65 168.53-12.8L168.53-12.8Q168.53-19.8 171.76-23.65 174.99-27.5 180.53-27.5L180.53-27.5Q185.63-27.5 188.41-24.33 191.19-21.15 191.19-15.55L191.19-15.55Q191.19-15.05 191.16-14.63 191.13-14.2 191.03-13.2ZM180.24-24.8L180.24-24.8Q174.24-24.8 173.63-15.65L173.63-15.65 186.13-15.65 186.13-17.3Q186.13-20.9 184.61-22.85 183.09-24.8 180.24-24.8ZM203.73-24.95L201.53-24 207.63-16.05 213.48-24 210.48-24.95 210.48-27 219.88-27 219.88-24.95 217.03-24 208.93-14.35 217.78-2.95 220.53-2.05 220.53 0 209.58 0 209.58-2.05 212.43-3 205.98-11.3 199.78-3 202.78-2.05 202.78 0 193.38 0 193.38-2.05 196.18-3 204.68-13 196.18-24 193.38-24.95 193.38-27 203.73-27 203.73-24.95Z" opacity="1" transform="matrix(1,0,0,1,0,0)" fill="#ffffff" class="slogan-text-1" data-fill-palette-color="secondary" id="text-1"></path></svg></g></svg></g></svg></g></svg></g><g><svg viewBox="0 0 223.1954005221287 223.1954005221287" height="223.1954005221287" width="223.1954005221287"><g><svg></svg></g><g id="icon-0"><svg viewBox="0 0 223.1954005221287 223.1954005221287" height="223.1954005221287" width="223.1954005221287"><g><path d="M0 111.598c0-61.634 49.964-111.598 111.598-111.598 61.634 0 111.598 49.964 111.597 111.598 0 61.634-49.964 111.598-111.597 111.597-61.634 0-111.598-49.964-111.598-111.597zM111.598 215.989c57.654 0 104.391-46.737 104.391-104.391 0-57.654-46.737-104.391-104.391-104.391-57.654 0-104.391 46.737-104.391 104.391 0 57.654 46.737 104.391 104.391 104.391z" data-fill-palette-color="accent" fill="#ffffff" stroke="transparent"></path></g><g transform="matrix(1,0,0,1,50.81223485648043,50.81223485648043)"><svg viewBox="0 0 121.57093080916783 121.57093080916783" height="121.57093080916783" width="121.57093080916783"><g><svg xmlns="http://www.w3.org/2000/svg" xmlns:xlink="http://www.w3.org/1999/xlink" version="1.1" x="0" y="0" viewBox="5 5 90 90" style="enable-background:new 0 0 100 100;" xml:space="preserve" height="121.57093080916783" width="121.57093080916783" class="icon-cg-0" data-fill-palette-color="accent" id="cg-0"><g fill="#bb84e8" data-fill-palette-color="accent"><g fill="#bb84e8" data-fill-palette-color="accent"><polygon points="30,42.5 35,42.5 32.5,34.8   " fill="#ffffff" data-fill-palette-color="accent"></polygon><path d="M84 5H16C9.9 5 5 9.6 5 15.3V67c0 5.7 4.9 10.3 11 10.3h7.2v15.3c0 0.9 0.6 1.8 1.5 2.2 0.4 0.2 0.7 0.2 1.1 0.2 0.6 0 1.2-0.2 1.7-0.5l22.7-17.2H84c6.1 0 11-4.6 11-10.3V15.3C95 9.6 90.1 5 84 5zM37.4 50l-1.3-4.1h-7.3L27.5 50h-4.3l7-19.7h4.7l7 19.7H37.4zM58.2 50H43v-3.5l10.1-12.8h-9.8v-3.5h15v3.3L48 46.5h10.2V50zM76.2 50h-15V30.3h14.5v3.5H65.3V38h9.6v3.4h-9.6v5.1h10.9V50z" fill="#ffffff" data-fill-palette-color="accent"></path></g></g></svg></g></svg></g></svg></g></svg></g></svg></g><defs></defs></svg><rect width="395.52" height="134.47903186753018" fill="none" stroke="none" visibility="hidden"></rect></g></svg></g></svg>